<svg xmlns="http://www.w3.org/2000/svg" width="100.04" height="65"><defs><linearGradient id="a" x1="0" x2="0" y1="0" y2="1"><stop offset="0%" stop-color="#36d5eb"/><stop offset="100%" stop-color="#1a8da8"/></linearGradient></defs><path fill="url(#a)" d="M30.95 12.07v36.37h-7.46L9.02 27.45h-.23v20.99H0V12.07h7.56l14.32 20.96h.3V12.07h8.77Zm5.5 36.37V12.07h25.36v7.14H45.24v7.46h15.27v7.15H45.24v7.48h16.57v7.14H36.45Zm39.76-36.37 6.64 11.49h.28l6.71-11.49h9.84L88.71 30.26l11.33 18.18H89.95l-6.82-11.61h-.28l-6.82 11.61H66.02l11.27-18.18L66.3 12.07h9.91Z" transform="matrix(1 0 0 1.35 0 -7.5)"/></svg>
